<svg width="114" height="181" viewBox="0 0 114 181" fill="none" xmlns="http://www.w3.org/2000/svg">
<path d="M9.34758 109.273C9.34758 96.2281 19.9977 85.6244 33.0996 85.6244C39.6889 85.6244 45.5886 88.2944 49.8793 92.5664L56.4685 86.0058C50.4922 80.0556 42.2173 76.3176 33.0996 76.3176C14.7876 76.3176 0 91.0407 0 109.273C0 127.505 14.7876 142.228 33.0996 142.228C45.2055 142.228 55.779 135.82 61.5254 126.132C64.437 121.25 66.1992 115.528 66.1992 109.425V109.273C66.1992 96.2281 76.8493 85.6244 89.9513 85.6244C96.5405 85.6244 102.44 88.2944 106.731 92.5664L113.32 86.0058C107.344 80.0556 99.069 76.3176 89.9513 76.3176C77.8454 76.3176 67.2719 82.7256 61.5254 92.4138C59.3035 96.0755 57.7711 100.195 57.1581 104.62H38.1565V113.926H56.3919C54.2466 124.759 44.5925 132.921 33.0996 132.921C19.9977 132.921 9.34758 122.394 9.34758 109.273Z" fill="white"/>
<path d="M47.4098 143.385C44.5285 144.525 41.4196 145.38 38.1592 145.737V153.792H47.4098V143.385Z" fill="white"/>
<path d="M47.4098 76.3175V57.8163H38.1592V73.6279C41.4196 74.1169 44.5285 75.0135 47.4098 76.3175Z" fill="white"/>
<path d="M56.6602 137.496V153.792H64.7545V137.496C63.2948 136.163 61.9015 134.607 60.7073 132.978C59.5131 134.607 58.1198 136.163 56.6602 137.496Z" fill="white"/>
<path d="M60.7074 85.5683C62.1547 83.895 63.8432 82.3738 65.6122 80.9286V57.578C69.8738 55.8286 72.8488 51.7213 72.8488 47.0055C72.8488 41.6813 68.9893 37.1937 63.8432 35.9007L61.7527 7.07365L61.2702 0.456365C61.2702 0.228182 61.029 0 60.7074 0C60.3857 0 60.1445 0.228182 60.1445 0.456365L57.5715 35.9767C52.345 37.2698 48.5659 41.7573 48.5659 47.0816C48.5659 51.7974 51.541 55.8286 55.8025 57.654V81.0047C57.5715 82.3738 59.26 83.895 60.7074 85.5683Z" fill="white"/>
<path d="M74.0049 143.385V153.792H84.4118V145.737C80.8291 145.38 77.3317 144.596 74.0049 143.385Z" fill="white"/>
<path d="M74.0049 57.8163V76.3175C77.2464 75.0135 80.7438 74.0354 84.4118 73.6279V57.8163H74.0049Z" fill="white"/>
<path d="M103.488 164.199H106.156L113.32 180.238H110.271L108.594 176.359H100.897L99.2201 180.238H96.324L103.488 164.199ZM107.527 173.897L104.708 167.481L101.888 173.897H107.527ZM76.8131 164.273H79.8617L84.8156 171.808L89.7695 164.273H92.8181V180.238H89.9982V168.824L84.8918 176.359H84.8156L79.7092 168.899V180.313H76.8893L76.8131 164.273ZM59.36 164.273H66.6003C67.5911 164.273 68.5057 164.422 69.3441 164.721C70.1062 165.019 70.7921 165.392 71.3256 165.915C71.7829 166.362 72.0878 166.884 72.3164 167.407C72.5451 168.003 72.6975 168.6 72.6975 169.346V169.421C72.6975 170.092 72.6213 170.689 72.3926 171.211C72.164 171.733 71.9354 172.181 71.5543 172.629C71.2494 173.002 70.7921 173.375 70.3349 173.673C69.8776 173.972 69.3441 174.195 68.7344 174.345L73.1548 180.387H69.8014L65.762 174.792H65.6858H62.1037V180.387H59.2838C59.36 180.238 59.36 164.273 59.36 164.273ZM66.3717 172.181C67.3625 172.181 68.2008 171.957 68.8106 171.435C69.4203 170.987 69.7251 170.316 69.7251 169.495V169.421C69.7251 168.526 69.4203 167.854 68.8106 167.407C68.2008 166.959 67.3625 166.735 66.2955 166.735H62.1037V172.106C62.1799 172.181 66.3717 172.181 66.3717 172.181ZM46.0987 164.199H48.7662L55.9303 180.238H52.8818L51.205 176.359H43.5074L41.8307 180.238H38.9345L46.0987 164.199ZM50.138 173.897L47.3181 167.481L44.4982 173.897H50.138ZM21.9387 164.273H24.7586V170.913H32.6087V164.273H35.4287V180.238H32.6087V173.524H24.8349V180.238H22.0149C21.9387 180.238 21.9387 164.273 21.9387 164.273ZM5.78125 164.273H12.1833C13.0978 164.273 14.0124 164.422 14.7746 164.646C15.5367 164.87 16.2226 165.243 16.7561 165.691C17.2896 166.138 17.6707 166.735 17.9756 167.407C18.2804 168.078 18.4328 168.824 18.4328 169.57V169.645C18.4328 170.54 18.2804 171.36 17.8993 172.032C17.5183 172.703 17.061 173.3 16.5275 173.748C15.9178 174.195 15.2318 174.568 14.4697 174.792C13.7075 175.016 12.793 175.165 11.9546 175.165H8.6774V180.313H5.85746C5.78125 180.238 5.78125 164.273 5.78125 164.273ZM11.9546 172.554C13.0216 172.554 13.9362 172.256 14.5459 171.733C15.1556 171.211 15.4605 170.54 15.4605 169.645V169.57C15.4605 168.6 15.1556 167.929 14.4697 167.407C13.86 166.959 12.9454 166.661 11.8784 166.661H8.52497V172.405L11.9546 172.554Z" fill="white"/>
</svg>
